<mxfile host="app.diagrams.net" modified="2023-12-10T09:30:57.616Z" agent="Mozilla/5.0 (Windows NT 10.0; Win64; x64) AppleWebKit/537.36 (KHTML, like Gecko) Chrome/120.0.0.0 Safari/537.36" etag="cYcftqPbs0YW2rPuBVvr" version="22.1.7" type="github">
  <diagram id="3228e29e-7158-1315-38df-8450db1d8a1d" name="Page-1">
    <mxGraphModel dx="794" dy="1285" grid="1" gridSize="10" guides="1" tooltips="1" connect="1" arrows="1" fold="1" page="1" pageScale="1" pageWidth="1169" pageHeight="827" background="none" math="0" shadow="0">
      <root>
        <mxCell id="0" />
        <mxCell id="1" parent="0" />
        <mxCell id="21532" value="" style="ellipse;fillColor=#12AAB5;opacity=60;strokeColor=none;html=1;fontColor=#FFFFFF;" parent="1" vertex="1">
          <mxGeometry x="110" y="-10" width="480" height="500" as="geometry" />
        </mxCell>
        <mxCell id="21534" value="&lt;font color=&quot;#33001a&quot; style=&quot;font-size: 20px;&quot;&gt;Samfund&lt;/font&gt;" style="text;fontSize=20;align=center;verticalAlign=middle;html=1;fontColor=#FFFFFF;" parent="1" vertex="1">
          <mxGeometry x="268.5" y="20" width="140" height="30" as="geometry" />
        </mxCell>
        <mxCell id="v-qFMnv5vQ4WHSmj2zlG-21540" value="&lt;font color=&quot;#33001a&quot; style=&quot;font-size: 20px;&quot;&gt;Politikere&lt;/font&gt;" style="text;fontSize=20;align=center;verticalAlign=middle;html=1;fontColor=#FFFFFF;" vertex="1" parent="1">
          <mxGeometry x="270.5" y="428.5" width="140" height="30" as="geometry" />
        </mxCell>
        <mxCell id="v-qFMnv5vQ4WHSmj2zlG-21541" value="" style="ellipse;whiteSpace=wrap;html=1;aspect=fixed;fillColor=#e1d5e7;strokeColor=#9673a6;" vertex="1" parent="1">
          <mxGeometry x="171.75" y="57" width="356.5" height="356.5" as="geometry" />
        </mxCell>
        <mxCell id="21531" value="" style="ellipse;fillColor=#d5e8d4;opacity=60;strokeColor=#82b366;html=1;" parent="1" vertex="1">
          <mxGeometry x="242.5" y="130.25" width="215" height="210" as="geometry" />
        </mxCell>
        <mxCell id="v-qFMnv5vQ4WHSmj2zlG-21542" value="&lt;font color=&quot;#33001a&quot; style=&quot;font-size: 20px;&quot;&gt;Administration&lt;/font&gt;" style="text;fontSize=20;align=center;verticalAlign=middle;html=1;fontColor=#FFFFFF;" vertex="1" parent="1">
          <mxGeometry x="270.5" y="90" width="140" height="30" as="geometry" />
        </mxCell>
        <mxCell id="v-qFMnv5vQ4WHSmj2zlG-21545" value="&lt;font color=&quot;#33001a&quot; style=&quot;font-size: 20px;&quot;&gt;Borgere&lt;/font&gt;" style="text;fontSize=20;align=center;verticalAlign=middle;html=1;fontColor=#FFFFFF;" vertex="1" parent="1">
          <mxGeometry x="270.5" y="220" width="140" height="30" as="geometry" />
        </mxCell>
        <mxCell id="v-qFMnv5vQ4WHSmj2zlG-21546" value="&lt;font color=&quot;#33001a&quot; style=&quot;font-size: 20px;&quot;&gt;LeverandÃ¸rer&lt;/font&gt;" style="text;fontSize=20;align=center;verticalAlign=middle;html=1;fontColor=#FFFFFF;" vertex="1" parent="1">
          <mxGeometry x="273.5" y="354" width="140" height="30" as="geometry" />
        </mxCell>
      </root>
    </mxGraphModel>
  </diagram>
</mxfile>
